<svg xmlns="http://www.w3.org/2000/svg" viewBox="0 0 48 32" width="48" height="32" style="image-rendering:pixelated">
  <!-- Envelope with star pattern - pixel art -->
  <!-- Envelope body -->
  <rect x="1" y="4" width="46" height="24" fill="#F8F0D0" rx="1"/>
  <!-- Star pattern on envelope body -->
  <rect x="6" y="10" width="2" height="2" fill="#A8B888" opacity="0.4"/>
  <rect x="5" y="11" width="1" height="1" fill="#A8B888" opacity="0.3"/>
  <rect x="8" y="11" width="1" height="1" fill="#A8B888" opacity="0.3"/>
  <rect x="6" y="9" width="1" height="1" fill="#A8B888" opacity="0.3"/>
  <rect x="7" y="12" width="1" height="1" fill="#A8B888" opacity="0.3"/>
  <rect x="16" y="16" width="2" height="2" fill="#A8B888" opacity="0.4"/>
  <rect x="15" y="17" width="1" height="1" fill="#A8B888" opacity="0.3"/>
  <rect x="18" y="17" width="1" height="1" fill="#A8B888" opacity="0.3"/>
  <rect x="16" y="15" width="1" height="1" fill="#A8B888" opacity="0.3"/>
  <rect x="17" y="18" width="1" height="1" fill="#A8B888" opacity="0.3"/>
  <rect x="34" y="12" width="2" height="2" fill="#A8B888" opacity="0.4"/>
  <rect x="33" y="13" width="1" height="1" fill="#A8B888" opacity="0.3"/>
  <rect x="36" y="13" width="1" height="1" fill="#A8B888" opacity="0.3"/>
  <rect x="34" y="11" width="1" height="1" fill="#A8B888" opacity="0.3"/>
  <rect x="35" y="14" width="1" height="1" fill="#A8B888" opacity="0.3"/>
  <rect x="40" y="20" width="2" height="2" fill="#A8B888" opacity="0.4"/>
  <rect x="39" y="21" width="1" height="1" fill="#A8B888" opacity="0.3"/>
  <rect x="42" y="21" width="1" height="1" fill="#A8B888" opacity="0.3"/>
  <rect x="26" y="22" width="2" height="2" fill="#A8B888" opacity="0.4"/>
  <rect x="25" y="23" width="1" height="1" fill="#A8B888" opacity="0.3"/>
  <rect x="28" y="23" width="1" height="1" fill="#A8B888" opacity="0.3"/>
  <!-- Envelope flap (triangular top) -->
  <rect x="1" y="4" width="46" height="2" fill="#E8DDD0"/>
  <rect x="3" y="6" width="42" height="1" fill="#E8DDD0"/>
  <rect x="5" y="7" width="38" height="1" fill="#E8DDD0"/>
  <rect x="7" y="8" width="34" height="1" fill="#E8DDD0" opacity="0.9"/>
  <rect x="9" y="9" width="30" height="1" fill="#E8DDD0" opacity="0.8"/>
  <rect x="11" y="10" width="26" height="1" fill="#E8DDD0" opacity="0.7"/>
  <rect x="13" y="11" width="22" height="1" fill="#E8DDD0" opacity="0.6"/>
  <rect x="15" y="12" width="18" height="1" fill="#E8DDD0" opacity="0.5"/>
  <rect x="17" y="13" width="14" height="1" fill="#E8DDD0" opacity="0.4"/>
  <rect x="19" y="14" width="10" height="1" fill="#E8DDD0" opacity="0.3"/>
  <rect x="21" y="15" width="6" height="1" fill="#E8DDD0" opacity="0.2"/>
  <!-- Border lines -->
  <rect x="1" y="4" width="46" height="1" fill="#C8B898"/>
  <rect x="1" y="27" width="46" height="1" fill="#C8B898"/>
  <rect x="1" y="4" width="1" height="24" fill="#C8B898"/>
  <rect x="46" y="4" width="1" height="24" fill="#C8B898"/>
  <!-- Flap fold line -->
  <rect x="1" y="4" width="1" height="1" fill="#C8B898"/>
  <rect x="46" y="4" width="1" height="1" fill="#C8B898"/>
  <!-- Heart seal -->
  <rect x="22" y="14" width="2" height="1" fill="#E85880"/>
  <rect x="25" y="14" width="2" height="1" fill="#E85880"/>
  <rect x="21" y="15" width="8" height="2" fill="#E85880"/>
  <rect x="22" y="17" width="6" height="1" fill="#E85880"/>
  <rect x="23" y="18" width="4" height="1" fill="#D04870"/>
  <rect x="24" y="19" width="2" height="1" fill="#D04870"/>
  <!-- Heart seal highlight -->
  <rect x="22" y="14" width="1" height="1" fill="#F4B8C1" opacity="0.5"/>
</svg>
