<svg xmlns="http://www.w3.org/2000/svg" viewBox="0 0 48 48" width="48" height="48" style="image-rendering:pixelated">
  <!-- Sage green background with olive/dark star grid pattern -->
  <!-- Base background -->
  <rect width="48" height="48" fill="#A8B888"/>
  <!-- Star row 1 (y=2) -->
  <rect x="5" y="2" width="2" height="1" fill="#506030"/>
  <rect x="4" y="3" width="4" height="1" fill="#506030"/>
  <rect x="2" y="4" width="8" height="1" fill="#506030"/>
  <rect x="3" y="5" width="6" height="1" fill="#506030"/>
  <rect x="4" y="6" width="4" height="1" fill="#506030"/>
  <rect x="3" y="7" width="2" height="1" fill="#506030"/>
  <rect x="7" y="7" width="2" height="1" fill="#506030"/>
  <rect x="2" y="8" width="2" height="1" fill="#506030"/>
  <rect x="8" y="8" width="2" height="1" fill="#506030"/>
  <rect x="21" y="2" width="2" height="1" fill="#506030"/>
  <rect x="20" y="3" width="4" height="1" fill="#506030"/>
  <rect x="18" y="4" width="8" height="1" fill="#506030"/>
  <rect x="19" y="5" width="6" height="1" fill="#506030"/>
  <rect x="20" y="6" width="4" height="1" fill="#506030"/>
  <rect x="19" y="7" width="2" height="1" fill="#506030"/>
  <rect x="23" y="7" width="2" height="1" fill="#506030"/>
  <rect x="18" y="8" width="2" height="1" fill="#506030"/>
  <rect x="24" y="8" width="2" height="1" fill="#506030"/>
  <rect x="37" y="2" width="2" height="1" fill="#506030"/>
  <rect x="36" y="3" width="4" height="1" fill="#506030"/>
  <rect x="34" y="4" width="8" height="1" fill="#506030"/>
  <rect x="35" y="5" width="6" height="1" fill="#506030"/>
  <rect x="36" y="6" width="4" height="1" fill="#506030"/>
  <rect x="35" y="7" width="2" height="1" fill="#506030"/>
  <rect x="39" y="7" width="2" height="1" fill="#506030"/>
  <rect x="34" y="8" width="2" height="1" fill="#506030"/>
  <rect x="40" y="8" width="2" height="1" fill="#506030"/>
  <!-- Star row 2 offset (y=16) -->
  <rect x="13" y="16" width="2" height="1" fill="#506030"/>
  <rect x="12" y="17" width="4" height="1" fill="#506030"/>
  <rect x="10" y="18" width="8" height="1" fill="#506030"/>
  <rect x="11" y="19" width="6" height="1" fill="#506030"/>
  <rect x="12" y="20" width="4" height="1" fill="#506030"/>
  <rect x="11" y="21" width="2" height="1" fill="#506030"/>
  <rect x="15" y="21" width="2" height="1" fill="#506030"/>
  <rect x="10" y="22" width="2" height="1" fill="#506030"/>
  <rect x="16" y="22" width="2" height="1" fill="#506030"/>
  <rect x="29" y="16" width="2" height="1" fill="#506030"/>
  <rect x="28" y="17" width="4" height="1" fill="#506030"/>
  <rect x="26" y="18" width="8" height="1" fill="#506030"/>
  <rect x="27" y="19" width="6" height="1" fill="#506030"/>
  <rect x="28" y="20" width="4" height="1" fill="#506030"/>
  <rect x="27" y="21" width="2" height="1" fill="#506030"/>
  <rect x="31" y="21" width="2" height="1" fill="#506030"/>
  <rect x="26" y="22" width="2" height="1" fill="#506030"/>
  <rect x="32" y="22" width="2" height="1" fill="#506030"/>
  <rect x="45" y="16" width="2" height="1" fill="#506030"/>
  <rect x="44" y="17" width="4" height="1" fill="#506030"/>
  <rect x="44" y="19" width="4" height="1" fill="#506030"/>
  <rect x="45" y="20" width="3" height="1" fill="#506030"/>
  <!-- Star row 3 (y=32) -->
  <rect x="5" y="32" width="2" height="1" fill="#506030"/>
  <rect x="4" y="33" width="4" height="1" fill="#506030"/>
  <rect x="2" y="34" width="8" height="1" fill="#506030"/>
  <rect x="3" y="35" width="6" height="1" fill="#506030"/>
  <rect x="4" y="36" width="4" height="1" fill="#506030"/>
  <rect x="3" y="37" width="2" height="1" fill="#506030"/>
  <rect x="7" y="37" width="2" height="1" fill="#506030"/>
  <rect x="2" y="38" width="2" height="1" fill="#506030"/>
  <rect x="8" y="38" width="2" height="1" fill="#506030"/>
  <rect x="21" y="32" width="2" height="1" fill="#506030"/>
  <rect x="20" y="33" width="4" height="1" fill="#506030"/>
  <rect x="18" y="34" width="8" height="1" fill="#506030"/>
  <rect x="19" y="35" width="6" height="1" fill="#506030"/>
  <rect x="20" y="36" width="4" height="1" fill="#506030"/>
  <rect x="19" y="37" width="2" height="1" fill="#506030"/>
  <rect x="23" y="37" width="2" height="1" fill="#506030"/>
  <rect x="18" y="38" width="2" height="1" fill="#506030"/>
  <rect x="24" y="38" width="2" height="1" fill="#506030"/>
  <rect x="37" y="32" width="2" height="1" fill="#506030"/>
  <rect x="36" y="33" width="4" height="1" fill="#506030"/>
  <rect x="34" y="34" width="8" height="1" fill="#506030"/>
  <rect x="35" y="35" width="6" height="1" fill="#506030"/>
  <rect x="36" y="36" width="4" height="1" fill="#506030"/>
  <rect x="35" y="37" width="2" height="1" fill="#506030"/>
  <rect x="39" y="37" width="2" height="1" fill="#506030"/>
  <rect x="34" y="38" width="2" height="1" fill="#506030"/>
  <rect x="40" y="38" width="2" height="1" fill="#506030"/>
  <!-- Subtle lighter spots (texture variation) -->
  <rect x="0" y="12" width="1" height="1" fill="#B8C898" opacity="0.3"/>
  <rect x="15" y="10" width="1" height="1" fill="#B8C898" opacity="0.3"/>
  <rect x="32" y="13" width="1" height="1" fill="#B8C898" opacity="0.3"/>
  <rect x="8" y="28" width="1" height="1" fill="#B8C898" opacity="0.3"/>
  <rect x="24" y="26" width="1" height="1" fill="#B8C898" opacity="0.3"/>
  <rect x="40" y="28" width="1" height="1" fill="#B8C898" opacity="0.3"/>
  <rect x="16" y="42" width="1" height="1" fill="#B8C898" opacity="0.3"/>
  <rect x="36" y="44" width="1" height="1" fill="#B8C898" opacity="0.3"/>
</svg>
