<svg xmlns="http://www.w3.org/2000/svg" viewBox="0 0 48 64" width="48" height="64" style="image-rendering:pixelated">
  <!-- 몸통 -->
  <rect x="12" y="28" width="24" height="20" fill="#5B8C5A" rx="4"/>
  <!-- 꼬리 -->
  <rect x="32" y="36" width="12" height="6" fill="#5B8C5A" rx="3"/>
  <!-- 머리 -->
  <rect x="14" y="12" width="20" height="18" fill="#7AB87A" rx="4"/>
  <!-- 뿔 -->
  <rect x="18" y="6" width="4" height="8" fill="#5B8C5A" rx="2"/>
  <rect x="26" y="4" width="4" height="10" fill="#5B8C5A" rx="2"/>
  <!-- 눈 -->
  <rect x="18" y="18" width="4" height="4" fill="#2C1810"/>
  <rect x="26" y="18" width="4" height="4" fill="#2C1810"/>
  <!-- 하트 -->
  <path d="M20 50 C20 46 16 44 16 48 C16 52 20 54 20 54 C20 54 24 52 24 48 C24 44 20 46 20 50Z" fill="#F4B8C1"/>
</svg>