<svg xmlns="http://www.w3.org/2000/svg" viewBox="0 0 64 64" width="64" height="64" style="image-rendering:pixelated">
  <!-- 몸통 -->
  <rect x="20" y="24" width="24" height="20" fill="#8B6914" rx="4"/>
  <!-- 얼굴 -->
  <rect x="22" y="16" width="20" height="16" fill="#C8960C" rx="3"/>
  <!-- 귀 -->
  <rect x="18" y="14" width="8" height="8" fill="#8B6914" rx="4"/>
  <rect x="38" y="14" width="8" height="8" fill="#8B6914" rx="4"/>
  <!-- 눈 -->
  <rect x="26" y="20" width="4" height="4" fill="#2C1810"/>
  <rect x="34" y="20" width="4" height="4" fill="#2C1810"/>
  <!-- 코/입 -->
  <rect x="30" y="26" width="4" height="2" fill="#8B3A3A"/>
  <!-- 키보드 -->
  <rect x="16" y="44" width="32" height="12" fill="#D4C9B8" rx="2"/>
  <rect x="18" y="46" width="5" height="3" fill="#9CAF88" rx="1"/>
  <rect x="25" y="46" width="5" height="3" fill="#9CAF88" rx="1"/>
  <rect x="32" y="46" width="5" height="3" fill="#9CAF88" rx="1"/>
  <rect x="39" y="46" width="5" height="3" fill="#9CAF88" rx="1"/>
  <rect x="20" y="51" width="24" height="3" fill="#9CAF88" rx="1"/>
</svg>